# xmcd
# Track frame offsets:
# 150
# 16250
# 31664
# 47871
# 60516
# 74481
# 90734
# 104589
# 120218
# 136672
# 152823
# 170301
# 184993
# 200470
#
# Disc length: 2863 seconds
# Revision: 0
# Processed by: cddbd v1.5.2PL0 Copyright (c) Steve Scherf et al.
# Submitted via: VisiTrax 2.11.3.279 - For more info visit www.synapsa.com
#
DISCID=b40b2d0e
DTITLE=Adam Brand and The Outlaws - Adam Brand and The Outlaws
DYEAR=2016
DGENRE=Country
TTITLE0=Good Year For The Outlaw
TTITLE1=Nothin' But A Good Time
TTITLE2=Sounds Of Then
TTITLE3=Six Days On The Road
TTITLE4=Working Class Man
TTITLE5=It's Five OÇlock Somewhere
TTITLE6=I Fought The Law
TTITLE7=Mamma Don't Let Your Babies
TTITLE8=Are You Gonna Be My Girl
TTITLE9=Fat Bottom Girls
TTITLE10=Way Out West
TTITLE11=Bad Case Of Loving You
TTITLE12=Take This Job And Shove It
TTITLE13=Good Riddance (Time Of Your Life)
EXTD=
EXTT0=
EXTT1=
EXTT2=
EXTT3=
EXTT4=
EXTT5=
EXTT6=
EXTT7=
EXTT8=
EXTT9=
EXTT10=
EXTT11=
EXTT12=
EXTT13=
PLAYORDER=
